<?xml version="1.0" encoding="utf-8"?>
<!-- Generator: Adobe Illustrator 25.0.0, SVG Export Plug-In . SVG Version: 6.00 Build 0)  -->
<svg version="1.1" id="Layer_1" xmlns="http://www.w3.org/2000/svg" xmlns:xlink="http://www.w3.org/1999/xlink" x="0px" y="0px"
	 viewBox="0 0 283.46 141.73" style="enable-background:new 0 0 283.46 141.73;" xml:space="preserve">
<style type="text/css">
	.st0{fill:#B52025;}
	.st1{fill:#FFFFFF;}
	.st2{fill:#FFFFFF;stroke:#FFFFFF;stroke-width:0.75;stroke-miterlimit:10;}
	.st3{fill:none;stroke:#FFFFFF;stroke-width:0.5;stroke-miterlimit:10;}
</style>
<rect class="st0" width="283.46" height="141.73"/>
<g>
	<path class="st1" d="M75.71,66.08c0-3.66-2.18-6.41-6.18-6.41c-4,0-7.22,0.26-7.22,4.72c0,2.8,0.07,4.07,0.07,4.07h-8.74v-3.52
		l-2.89-0.02l0.06,26.24c7.76,0.01,14.56,0.02,15.92,0.02c1.35,1.4,2.58,2,5.44,1.93C82.35,92.88,75.71,69.74,75.71,66.08z
		 M68.9,62.5c2.2,0,3.99,1.25,3.99,2.8c0,1.54-1.79,3.2-3.99,3.2c-2.2,0-3.99-1.65-3.99-3.2C64.91,63.76,66.7,62.5,68.9,62.5z
		 M64.51,74.5h3.1v3.26h-3.1V74.5z M69.17,74.56h3.1v3.26h-3.1V74.56z M59.9,74.5H63v3.26h-3.1V74.5z M55.21,74.56h3.1v3.26h-3.1
		V74.56z M74.49,88.15H55.2v-8.89h19.29V88.15z"/>
	<rect x="26.51" y="36.56" class="st1" width="31.96" height="12.29"/>
	<polygon class="st1" points="57.48,33.66 56.08,33.66 56.08,30.37 29.31,30.37 29.31,33.66 26.41,33.66 26.41,35.76 57.48,35.76 	
		"/>
	<rect x="27.21" y="49.64" class="st1" width="30.47" height="1.7"/>
	<rect x="28.51" y="52.34" class="st1" width="28.47" height="1.7"/>
	<rect x="64.91" y="74.9" class="st1" width="2.3" height="2.46"/>
	<rect x="69.57" y="74.96" class="st1" width="2.3" height="2.46"/>
	<rect x="55.61" y="74.96" class="st1" width="2.3" height="2.46"/>
	<rect x="60.3" y="74.9" class="st1" width="2.3" height="2.46"/>
	<path class="st1" d="M27.23,78.59c-2.09,0-3.8,1.7-3.8,3.8c0,2.09,1.7,3.8,3.8,3.8c2.09,0,3.8-1.7,3.8-3.8
		C31.02,80.3,29.32,78.59,27.23,78.59z M27.23,84.45c-1.14,0-2.06-0.92-2.06-2.06c0-1.14,0.92-2.06,2.06-2.06
		c1.14,0,2.06,0.92,2.06,2.06C29.29,83.53,28.37,84.45,27.23,84.45z"/>
	<path class="st1" d="M68.9,67.42c1.83,0,3.32-0.95,3.32-2.12c0-1.17-1.49-2.12-3.32-2.12c-1.83,0-3.32,0.95-3.32,2.12
		C65.58,66.47,67.07,67.42,68.9,67.42z M68.9,64.15c0.95,0,1.72,0.52,1.72,1.15c0,0.64-0.77,1.15-1.72,1.15
		c-0.95,0-1.72-0.52-1.72-1.15C67.18,64.66,67.95,64.15,68.9,64.15z"/>
	<rect x="28.59" y="55.2" class="st1" width="28.37" height="5.79"/>
	<rect x="28.52" y="61.62" class="st1" width="28.37" height="2.4"/>
	<path class="st1" d="M35.67,64.83l-0.09,26.3c4.41,0.01,9.58,0.02,14.43,0.02l-0.06-26.24L35.67,64.83z M41.05,88.06h-3.1V76.7h3.1
		V88.06z M48.18,88.06h-3.3V76.7h3.3V88.06z"/>
	<path class="st1" d="M32.12,68.37l-5.49,0.03l0.05,2.45c0,0-6.91-0.58-6.91,10.21c0,3.53-1,10.05,4.79,10.05
		c0.76,0,4.85,0.01,10.22,0.02l0.09-26.3l-2.78-0.02L32.12,68.37z M27.23,87.38c-2.75,0-4.99-2.24-4.99-4.99
		c0-2.75,2.24-4.99,4.99-4.99c2.75,0,4.99,2.24,4.99,4.99C32.22,85.14,29.98,87.38,27.23,87.38z"/>
</g>
<polygon class="st0" points="38.88,110.58 80.49,38.42 80.49,110.58 "/>
<g>
	<path class="st1" d="M81.04,74.19c1.5-2.54,3.39-4.73,5.38-5.92c1.99-1.19,3.83-1.66,6.23-1.62c2.82,0.04,4.87,0.82,6.76,2.22
		c3.03,2.24,4.49,6.62,3.45,10.46c-1.13,4.21-4.81,7.76-10.06,8.22c-3.59,0.31-6.22-0.7-8.13-2.09c-1.82-1.32-2.84-2.34-4-4.59
		c-1.08,3.71-2.09,6.92-3.59,10.22c-0.43,0.95-1.15,1.79-2,1.38c-0.97-0.46-0.5-1.72-0.21-2.75c0.42-1.5,1.29-4.05,1.92-6.26
		c0.58-2.07,0.98-4.09,1.33-5.34c0.25-0.88,0.36-2.04,0.5-2.59C78.83,74.73,80.48,75.14,81.04,74.19z M82.87,79.15
		c0.65,1.57,1.58,2.79,3.17,3.96c2.09,1.54,5.03,2.04,7.29,1.59c3.39-0.67,5.81-3.39,6.5-5.95c0.85-3.16-0.29-6.11-2.69-7.7
		c-2.21-1.46-5.26-1.75-8.01-0.64c-2.74,1.11-4.33,3.01-5.63,5.72C82.98,77.23,82.41,78.05,82.87,79.15z"/>
	<path class="st1" d="M114.43,66.91c0.87,0.37,1.23,1.41,0.86,2.28c-0.5,1.17-2.54,4.92-3.34,6.3c-0.54,0.94-1.67,1.63-2.5,1.21
		c-0.9-0.45-0.69-1.7-0.2-2.58c0.91-1.67,2.46-4.88,3.17-6.33C112.78,67.01,113.64,66.57,114.43,66.91z"/>
	<path class="st1" d="M130.92,63.19c1.65-3.85,3.03-6.88,4.77-9.41c2.54-3.67,5.6-6.1,8.86-7.25c3.74-1.32,7.36-1.06,10.11,1
		c0.99,0.74,2.16,2.19,1.58,2.76c-1.01,1.01-1.92-0.43-2.98-1.06c-1.9-1.12-4.94-1.46-7.48-0.51c-1.91,0.72-4.18,2.47-5.93,4.43
		c-3.46,3.88-6.71,12.57-9.05,18.27c-1.33,3.25-3.04,7.68-5.26,10.85c-1.53,2.19-3.13,4.26-5.17,5.63
		c-1.58,1.07-3.77,1.48-4.83,0.83c-0.91-0.56-1.45-1.94-1.51-3.38c-0.08-2,0.55-3.98,1.54-5.59c1.21-1.96,2.8-3.63,4.2-4.71
		c1.69-1.3,4.65-2.68,5.9-1.84c0.32,0.21,0.13,1.21,0.25,2.09C127.44,71.51,128.9,67.89,130.92,63.19z M120.79,78.28
		c-1.29,1.25-2.75,3.29-3.46,5.13c-0.33,0.85-0.56,2.63,0.28,2.31c0.96-0.37,1.75-0.9,2.62-1.79c1.48-1.52,2.86-3.15,3.85-4.91
		c0.49-0.87,1.19-2.01,0.69-2.48C124.08,75.9,122.01,77.1,120.79,78.28z"/>
	<path class="st1" d="M141.67,66.91c0.87,0.37,1.23,1.41,0.86,2.28c-0.5,1.17-2.54,4.92-3.34,6.3c-0.54,0.94-1.67,1.63-2.5,1.21
		c-0.9-0.45-0.69-1.7-0.2-2.58c0.91-1.67,2.46-4.88,3.17-6.33C140.02,67.01,140.88,66.57,141.67,66.91z"/>
	<path class="st1" d="M144.11,80.82c1.67-3.55,2.59-6.05,4.38-8.38c0.69-0.9,2.11-1.5,2.84-0.63c2.17,2.6,5.03,9.04,7.22,12.51
		c0.94,1.5,2.08,0.06,2.54-0.88c1.21-2.42,8.3-18.06,9.47-20.48c0.56-1.16,1.63-2.39,2.79-1.75c0.92,0.5,0.58,1.9,0.08,2.92
		c-1.31,2.68-3.29,6.8-4.84,10.18c-1.29,2.83-3.34,7.55-4.67,10.3c-1.26,2.6-2.21,4.13-3.92,4.21c-2.04,0.1-2.92-1.58-3.96-3.29
		c-1.08-1.79-3.94-7.61-4.88-9.07c-0.39-0.6-1.47-0.27-1.79,0.4c-1.77,3.66-2.95,6.52-4.92,10.14c-0.61,1.12-1.86,2.17-2.92,1.46
		c-0.84-0.57-0.14-1.78,0.21-2.59C142.82,83.37,143.18,82.79,144.11,80.82z"/>
	<path class="st1" d="M182.53,64.84c-1.11,3.13-2.2,6-3.27,8.63c-1.26,3.1-2.28,5.42-3.45,7.86c-0.77,1.61-1.58,3.25-2.29,4.61
		c-0.49,0.95-2.27,3.4-3.46,2.67c-0.65-0.4-0.42-1.41-0.06-2.18c1.34-2.86,2.75-5.88,3.81-8.17c1.18-2.53,2.24-5.31,3.27-7.75
		c1.06-2.5,2.13-5.21,3-7.44c0.25-0.65,1.1-0.85,1.72-0.52C182.64,62.99,182.84,63.96,182.53,64.84z"/>
	<path class="st1" d="M196.62,63.19c1.65-3.85,3.03-6.88,4.77-9.41c2.54-3.67,5.6-6.1,8.86-7.25c3.74-1.32,7.36-1.06,10.11,1
		c0.99,0.74,2.16,2.19,1.59,2.76c-1.01,1.01-1.92-0.43-2.98-1.06c-1.9-1.12-4.94-1.46-7.48-0.51c-1.91,0.72-4.18,2.47-5.93,4.43
		c-3.46,3.88-6.71,12.57-9.05,18.27c-1.34,3.25-3.05,7.68-5.26,10.85c-1.53,2.19-3.13,4.26-5.17,5.63
		c-1.58,1.07-3.77,1.48-4.83,0.83c-0.91-0.56-1.45-1.94-1.51-3.38c-0.08-2,0.55-3.98,1.54-5.59c1.21-1.96,2.8-3.63,4.2-4.71
		c1.68-1.3,4.65-2.68,5.9-1.84c0.32,0.21,0.12,1.21,0.25,2.09C193.14,71.51,194.6,67.89,196.62,63.19z M186.49,78.28
		c-1.29,1.25-2.75,3.29-3.46,5.13c-0.33,0.85-0.56,2.63,0.28,2.31c0.96-0.37,1.75-0.9,2.61-1.79c1.48-1.52,2.86-3.15,3.85-4.91
		c0.49-0.87,1.19-2.01,0.69-2.48C189.78,75.9,187.71,77.1,186.49,78.28z"/>
	<path class="st1" d="M212.81,57.05c2.46-1.71,5.05-2.99,7.97-2.96c3.75,0.04,5.23,2.49,5.17,5.01c-0.08,3.84-3.04,7.51-4.63,8.93
		c-0.4,0.36-0.81,1.01-0.37,1.33c2.75,2.04,4.5,4.88,4.13,8.68c-0.36,3.64-2.22,6.03-5.13,7.84c-3,1.88-7.13,2.86-10.64,2.84
		c-5.17-0.04-9.68-1.38-13.06-3.42c-0.49-0.3-0.24-1.65,0.75-1.25c2.88,1.17,6.17,1.89,9.26,2.04c3.3,0.17,7.29-0.04,9.89-1.29
		c3.38-1.63,5.74-3.91,5.88-7.67c0.1-2.74-1.57-4.35-3.84-5.88c-0.49-0.33-0.91-0.39-1.5-0.29c-0.96,0.17-1.84,0.75-2.67-0.58
		c-0.51-0.82-0.13-1.63,1.13-2.21c1.22-0.57,1.3,0.05,2.96-1.46c2.25-2.04,3.8-3.84,4.5-5.8c0.58-1.6-0.21-3.63-1.79-3.67
		c-2.21-0.06-3.81,0.7-5.76,2.09c-1.58,1.13-2.47,2.03-3.88,3.5c-0.92,0.96-2.55,0.64-1.88-1.33
		C209.93,59.63,211.66,57.85,212.81,57.05z"/>
	<path class="st1" d="M238.18,71.4c0.97-1.24,1.92-2.17,2.59-2.63c3.3-2.25,7.84-2.59,11.72-1.13c2.08,0.78,4.17,2.84,4.88,5.38
		c1.07,3.84,0.48,7.28-1.75,11.26c-0.96,1.71-2.34,3.46-3.29,4.3c-0.51,0.45-1.06,0.99-1.63,0.63c-0.45-0.29-0.35-0.91-0.08-1.38
		c0.79-1.38,1.23-2.22,1.96-3.67c1.87-3.74,3.42-8.97,0.71-12.18c-1.83-2.17-6.13-2.75-9.22-1.42c-1.62,0.7-2.8,1.75-3.5,2.88
		c-0.38,0.61-0.76,0.99-0.71,1.71c0.17,2.25-0.07,4.66-0.63,6.42c-1.08,3.46-3.71,6.55-7.05,8.01c-3.03,1.32-6.51,1.21-9.22,0.63
		c-0.19-0.04-4.18-1.4-2.92-2.84c0.32-0.37,0.85-0.19,1.25,0.08c1.21,0.83,3.67,0.96,5.3,0.96c2.44,0,4.3-0.83,5.92-2.04
		c2.08-1.55,3.46-3.92,4.09-7.09c0.45-2.29,0.11-3.84,0.17-6.09C236.8,71.6,237.88,71.77,238.18,71.4z"/>
</g>
<line class="st2" x1="44.88" y1="98.32" x2="72.9" y2="52.13"/>
<line class="st3" x1="44.17" y1="18.24" x2="44.17" y2="10.11"/>
<line class="st3" x1="50.57" y1="22.79" x2="55.01" y2="15.98"/>
<line class="st3" x1="36.9" y1="22.27" x2="32.84" y2="15.23"/>
<line class="st3" x1="53.26" y1="26.47" x2="57.17" y2="25.36"/>
<line class="st3" x1="33.74" y1="25.94" x2="29.83" y2="24.82"/>
<g>
	<path class="st1" d="M78.52,55.38c0.18,0.05,0.2,0.28,0.14,0.46c-0.38,1.19-1.07,2.94-1.49,3.92c-0.39,0.91-1.31,2.89-1.86,3.7
		c-0.09,0.13-0.25,0.24-0.38,0.15c-0.17-0.12-0.08-0.36,0.03-0.54c0.6-1.05,1.41-2.83,1.7-3.55c0.43-1.06,1.17-2.9,1.47-3.82
		C78.19,55.51,78.34,55.33,78.52,55.38z"/>
	<path class="st1" d="M78.84,58.01c0.3-0.65,0.47-1.11,0.8-1.53c0.13-0.16,0.39-0.27,0.52-0.11c0.4,0.48,0.92,1.65,1.32,2.29
		c0.17,0.27,0.38,0.01,0.46-0.16c0.22-0.44,1.52-3.3,1.73-3.74c0.1-0.21,0.3-0.44,0.51-0.32c0.17,0.09,0.11,0.35,0.02,0.53
		c-0.24,0.49-0.6,1.24-0.88,1.86c-0.24,0.52-0.61,1.38-0.85,1.88c-0.23,0.48-0.4,0.76-0.72,0.77c-0.37,0.02-0.53-0.29-0.72-0.6
		c-0.2-0.33-0.72-1.39-0.89-1.66c-0.07-0.11-0.27-0.05-0.33,0.07c-0.32,0.67-0.54,1.19-0.9,1.85c-0.11,0.2-0.34,0.4-0.53,0.27
		c-0.15-0.1-0.03-0.33,0.04-0.47C78.61,58.47,78.67,58.37,78.84,58.01z"/>
	<path class="st1" d="M84.35,56.03c0.43-0.39,1.12-0.67,1.84-0.63c0.85,0.05,1.41,0.57,1.64,1.23c0.26,0.75,0.17,1.64-0.41,2.39
		c-0.14,0.18-0.24,0.27-0.43,0.4c-0.12,0.08-0.2,0.13-0.27,0.05c-0.07-0.08,0-0.18,0.07-0.27c0.45-0.63,0.76-1.36,0.59-2.17
		c-0.12-0.6-0.62-1.05-1.31-1.05c-0.77,0-1.33,0.38-1.77,0.95c-0.09,0.12-0.2,0.25-0.32,0.22c-0.12-0.03-0.15-0.17-0.11-0.29
		C83.94,56.55,84.08,56.28,84.35,56.03z"/>
	<path class="st1" d="M91.26,55.45c0.95,0.04,1.67,0.35,2.18,1.04c0.35,0.47,0.46,1.28,0.16,2.01c-0.21,0.52-0.66,0.94-1.09,0.95
		c-0.51,0.01-0.92-0.3-1.25-0.71c-0.12-0.15-0.28-0.27-0.37-0.31c-0.1-0.05-0.17-0.06-0.32,0.1c-0.21,0.23-0.3,0.46-0.53,0.7
		c-0.11,0.12-0.3,0.14-0.42,0.02c-0.12-0.12-0.07-0.29,0.03-0.43c0.21-0.31,0.39-0.54,0.61-0.8c0.23-0.28,0.62-0.33,0.93-0.08
		c0.38,0.31,0.42,0.49,0.85,0.79c0.24,0.17,0.48,0.27,0.75,0.12c0.12-0.07,0.28-0.3,0.37-0.53c0.18-0.44,0.14-0.98-0.11-1.41
		c-0.34-0.59-1.02-0.85-1.56-0.91c-0.74-0.08-1.4,0.06-1.95,0.28c-0.26,0.1-0.56,0.43-0.67,0.23c-0.1-0.17,0.02-0.43,0.21-0.58
		C89.55,55.59,90.44,55.42,91.26,55.45z"/>
	<path class="st1" d="M96.03,55.46c0.16,0.07,0.23,0.26,0.16,0.42c-0.09,0.21-0.46,0.9-0.61,1.15c-0.1,0.17-0.3,0.3-0.46,0.22
		c-0.16-0.08-0.13-0.31-0.04-0.47c0.17-0.31,0.45-0.89,0.58-1.16C95.73,55.48,95.88,55.4,96.03,55.46z"/>
	<path class="st1" d="M99.04,54.78c0.3-0.7,0.55-1.26,0.87-1.72c0.46-0.67,1.02-1.12,1.62-1.33c0.68-0.24,1.35-0.19,1.85,0.18
		c0.18,0.14,0.39,0.4,0.29,0.5c-0.18,0.18-0.35-0.08-0.55-0.19c-0.35-0.2-0.9-0.27-1.37-0.09c-0.35,0.13-0.76,0.45-1.08,0.81
		c-0.63,0.71-1.23,2.3-1.66,3.34c-0.24,0.6-0.56,1.4-0.96,1.98c-0.28,0.4-0.57,0.78-0.95,1.03c-0.29,0.19-0.69,0.27-0.88,0.15
		c-0.17-0.1-0.27-0.35-0.28-0.62c-0.01-0.37,0.1-0.73,0.28-1.02c0.22-0.36,0.51-0.66,0.77-0.86c0.31-0.24,0.85-0.49,1.08-0.34
		c0.06,0.04,0.02,0.22,0.05,0.38C98.41,56.3,98.68,55.64,99.04,54.78z M97.19,57.54c-0.24,0.23-0.5,0.6-0.63,0.94
		c-0.06,0.15-0.1,0.48,0.05,0.42c0.18-0.07,0.32-0.16,0.48-0.33c0.27-0.28,0.52-0.58,0.7-0.9c0.09-0.16,0.22-0.37,0.13-0.45
		C97.79,57.11,97.41,57.33,97.19,57.54z"/>
	<path class="st1" d="M106.66,56.28c0.18-0.23,0.35-0.4,0.47-0.48c0.6-0.41,1.43-0.47,2.14-0.21c0.38,0.14,0.76,0.52,0.89,0.98
		c0.2,0.7,0.09,1.33-0.32,2.06c-0.18,0.31-0.43,0.63-0.6,0.79c-0.09,0.08-0.19,0.18-0.3,0.11c-0.08-0.05-0.06-0.17-0.01-0.25
		c0.14-0.25,0.23-0.41,0.36-0.67c0.34-0.68,0.62-1.64,0.13-2.23c-0.34-0.4-1.12-0.5-1.69-0.26c-0.3,0.13-0.51,0.32-0.64,0.53
		c-0.07,0.11-0.14,0.18-0.13,0.31c0.03,0.41-0.01,0.85-0.11,1.17c-0.2,0.63-0.68,1.2-1.29,1.46c-0.55,0.24-1.19,0.22-1.69,0.11
		c-0.03-0.01-0.76-0.25-0.53-0.52c0.06-0.07,0.16-0.04,0.23,0.01c0.22,0.15,0.67,0.18,0.97,0.18c0.45,0,0.79-0.15,1.08-0.37
		c0.38-0.28,0.63-0.72,0.75-1.3c0.08-0.42,0.02-0.7,0.03-1.11C106.41,56.32,106.61,56.35,106.66,56.28z"/>
	<path class="st1" d="M112.36,55.46c0.16,0.07,0.23,0.26,0.16,0.42c-0.09,0.21-0.46,0.9-0.61,1.15c-0.1,0.17-0.3,0.3-0.46,0.22
		c-0.16-0.08-0.13-0.31-0.04-0.47c0.17-0.31,0.45-0.89,0.58-1.16C112.05,55.48,112.21,55.4,112.36,55.46z"/>
	<path class="st1" d="M115.2,55.38c0.56,0.01,1.12,0.33,1.21,0.78c0.07,0.36-0.1,0.69-0.31,0.9c-0.11,0.11-0.02,0.18,0.06,0.21
		c0.4,0.15,0.74,0.63,0.53,1.15c-0.16,0.38-0.22,0.46-0.66,0.82c-0.23,0.18-0.6,0.33-0.72,0.21c-0.1-0.09-0.03-0.25,0.06-0.34
		c0.27-0.28,0.65-0.46,0.78-0.75c0.12-0.28-0.09-0.64-0.33-0.7c-0.27-0.07-0.34-0.02-0.72,0.1c-0.2,0.06-0.27,0.11-0.48,0.11
		c-0.25,0-0.37-0.12-0.33-0.3c0.05-0.19,0.43-0.24,0.61-0.32c0.41-0.18,0.96-0.45,0.95-0.83c-0.01-0.31-0.33-0.46-0.63-0.47
		c-0.28-0.01-0.95,0.09-1.28,0.34c-0.2,0.15-0.4,0.26-0.56,0.51c-0.09,0.14-0.35,0.26-0.49,0.16c-0.17-0.12-0.07-0.36,0.05-0.53
		C113.48,55.61,114.56,55.37,115.2,55.38z"/>
	<path class="st1" d="M119.65,55.09c-0.2,0.57-0.4,1.1-0.6,1.58c-0.23,0.57-0.42,0.99-0.63,1.44c-0.14,0.29-0.29,0.6-0.42,0.84
		c-0.09,0.17-0.41,0.62-0.63,0.49c-0.12-0.07-0.08-0.26-0.01-0.4c0.24-0.52,0.5-1.08,0.7-1.49c0.22-0.46,0.41-0.97,0.6-1.42
		c0.19-0.46,0.39-0.95,0.55-1.36c0.05-0.12,0.2-0.15,0.31-0.09C119.67,54.75,119.7,54.92,119.65,55.09z"/>
	<path class="st1" d="M122.26,55.49c0.48,0.01,1.18,0.11,1.68,0.59c0.51,0.49,0.72,1.08,0.68,1.68c-0.04,0.67-0.43,1.17-0.6,1.39
		c-0.12,0.15-0.27,0.27-0.41,0.3c-0.2,0.04-0.23-0.1-0.17-0.18c0.25-0.33,0.47-0.67,0.59-1.17c0.18-0.72-0.11-1.52-0.9-1.88
		c-0.72-0.33-1.69-0.08-2.01,0.02c-0.4,0.14-0.69,0.27-0.99,0.47c-0.18,0.11-0.38,0.01-0.41-0.08c-0.05-0.15-0.01-0.29,0.16-0.41
		C120.51,55.8,121.35,55.48,122.26,55.49z M121.13,57.92c0.14,0.01,0.37,0.05,0.52,0.22c0.15,0.17,0.18,0.42,0.08,0.68
		c-0.07,0.19-0.19,0.35-0.45,0.52c-0.17,0.12-0.53,0.08-0.4-0.19c0.08-0.17,0.35-0.36,0.32-0.55c-0.03-0.17-0.18-0.23-0.35-0.26
		c-0.14-0.03-0.18-0.19-0.11-0.29C120.85,57.92,120.99,57.91,121.13,57.92z"/>
	<path class="st1" d="M126.87,55.46c0.16,0.07,0.23,0.26,0.16,0.42c-0.09,0.21-0.46,0.9-0.61,1.15c-0.1,0.17-0.3,0.3-0.46,0.22
		c-0.16-0.08-0.13-0.31-0.04-0.47c0.17-0.31,0.45-0.89,0.58-1.16C126.57,55.48,126.72,55.4,126.87,55.46z"/>
</g>
</svg>
